<?xml version="1.0" encoding="utf-8"?>
<!-- Generator: Adobe Illustrator 14.0.0, SVG Export Plug-In . SVG Version: 6.00 Build 43363)  -->
<!DOCTYPE svg PUBLIC "-//W3C//DTD SVG 1.1//EN" "http://www.w3.org/Graphics/SVG/1.1/DTD/svg11.dtd">
<svg version="1.1" id="Layer_1" xmlns="http://www.w3.org/2000/svg" xmlns:xlink="http://www.w3.org/1999/xlink" x="0px" y="0px"
	 width="52px" height="69px" viewBox="0 0 501 501" enable-background="new 0 0 501 501" xml:space="preserve">
<path fill="#F7F7F5" stroke="#616362" stroke-width="16" d="M484.111,250.093c0,128.397-104.09,232.489-232.489,232.489
	c-128.4,0-232.489-104.092-232.489-232.489c0-128.4,104.089-232.49,232.489-232.49C380.021,17.603,484.111,121.692,484.111,250.093z
	"/>
<g>
	<g>
		<path fill-rule="evenodd" clip-rule="evenodd" fill="#F4BDDC" d="M390.574,184.277c-2.134-6.021-1.86-4.98-3.722-10.071
			c-12.698-31.909-45.655-45.34-76.7-39.93c-29.4,5.123-50.815,31.75-55.317,50.001c-0.01,0-0.018,0-0.028,0l0,0h-6.979v-0.018
			h-0.001c-4.502-18.25-25.917-44.879-55.317-50.001c-31.044-5.409-64.001,8.021-76.7,39.93c-1.861,5.091-1.587,4.051-3.722,10.071
			c-32.622,122.603,87.136,105.635,139.243,196.603v-0.045l0,0.064C303.438,289.914,423.195,306.882,390.574,184.277z"/>
	</g>
</g>
</svg>
