<?xml version="1.0" encoding="utf-8"?>
<!-- Generator: Adobe Illustrator 18.0.0, SVG Export Plug-In . SVG Version: 6.00 Build 0)  -->
<!DOCTYPE svg PUBLIC "-//W3C//DTD SVG 1.1//EN" "http://www.w3.org/Graphics/SVG/1.1/DTD/svg11.dtd">
<svg version="1.1" id="Слой_2" xmlns="http://www.w3.org/2000/svg" xmlns:xlink="http://www.w3.org/1999/xlink" x="0px" y="0px"  width="73px" height="59px"
	 viewBox="417 0 773 1200" enable-background="new 417 0 773 1200" xml:space="preserve">
<path fill="#000000"    d="M829,134.9c1,0,3.3-0.4-0.5-3.7
	c-1-0.9-3-1.6-5.6-2.2v-11.3h16.7v9.5H867v-36h-27.4v5.6v0.5h-58.4v-6h-18.8v6h-37.7V93h-38.4v28.4h38.4v-3.7h3v13.2
	c-5.1,0.4-9.1,1-10.4,2.1c-4.2,3.7-8.4,14.4-8.4,14.4h-14.2c-4.6-2.4-10.8-3.6-13.6-3.8c-0.4-1.5,0.3-3.5,0.4-5c0.1-2-0.2-4,0-6
	c0.3-3.8,0.6-7.5,0-11.2c-1.1-6.9-4-12.1-6.4-18.6c-2.3-6.2-5.5-11.7-8.4-17.7c-2.1-4.4-2.2-4.7,1.6-8c2.9-2.5,5.6-5.2,8.1-8.1
	c2.2-2.6,4.8-4.9,2.8-7.7c-1.8-2.5-5.4-5.1-8-7c-6.1-4.3-26.5-10.9-26.5-10.9s-3.1-5.7-7.9-10.1c-5.5-4.9-11.9-9.2-17.8-13.3
	c-12.2-8.3-25.8-16.4-40.3-17.8c-14-1.4-29.2,3.1-40.5,11.8c-11.5,8.9-19.6,24.1-23.3,38c-1.9,7.3-2.3,14.9-0.6,22.3
	c1.8,7.6,2.6,15.3,4.4,22.8c1.5,6.1,3.2,16.1,7.9,20.8c0.9,0.9,2.6,1.5,3.3,2.8c0.8,1.7,0,2.1-0.1,4.3c-0.2,3.4,1.6,6.2,2.7,9.2
	c-2.1,0.1-3.1-0.3-5.2,0.4c-1.6,0.6-3.1,1.4-4.7,1.9c-3.5,1.2-7.2,2.5-10.6,4.3c-6.5,3.4-12.7,7.9-18.1,13
	c-4.6,4.4-11,9.6-13.6,15.3c-3.2,6.8-3.4,13.8-4,21.4c-0.3,3.8-2.3,7.9-3.2,9.8c-0.8,1.6-2.1,3.4-3,5c-3.5,6-4.7,19.1-6,26.1
	c-1.3,6.7-3.1,13.4-3.6,20.6c-0.6,7.4-0.4,15.1-0.4,22.8c0,7.1,0.8,13.5,1.4,20.5c0.3,3.2,0.5,6.4,0.5,9.8c0,2.5-0.9,25.6,14.5,43.7
	c2.9,3.5,4.6,8.6,8.7,11.1c3.9,2.4,12.1,1.1,15.8-0.7c-0.3,7.7-1.4,15.4-1.4,23.1s-0.6,15.1,0,22.8c0.7,8,2.7,14.7,4.8,22.3
	c2,7.4,4,15.7,8.8,21.7c2,2.5,6.6,6.6,6.8,9.8c-4.9,1.4-8.1,10.3-8.9,14.5c-1,5.1-3.2,11.6-0.1,16.3c-3.9,5.8-6.1,12.4-9.9,18.2
	c-4.3,6.6-8.3,15.2-10.8,22.7c-2.6,7.9-4.2,16.2-6.5,24.2c-2.2,7.5-6.7,36.6-8.7,42.9c-1.1,3.4-2.2,6.7-2.5,10.1
	c-0.2,2.7-3.5,47.6-5.1,65.1c-1.6,17.7-0.9,36-2.2,53.6c-0.8,11-0.1,22.3-0.1,33.3c0,11.6,0.6,23.2,1.4,34.7
	c0.8,10.6-0.5,21.3-0.5,31.9c0,4.5,0.3,8.8,1,13.1c0.6,3.6,2.3,7.4,2.8,11.2c1,6.9-0.9,14.2-1.4,20.9c-0.5,6.9-0.8,14.4-1.4,21.4
	c-0.7,8.4-1.5,16.8-2.3,25.1c-0.3,2.7-5.9,43-4.7,50.7c1.2,7.6,7.2,13.6,9.7,20.9c2.2,6.4,0.7,16.3-1.9,22.3
	c-1.5,3.4-4.1,6.4-5.5,9.8c-1.3,3.2-1.9,7-2.8,10.3c-0.4,1.6-0.3,8.5-1,10.1c-1.3,2.8-16.2,20-21.2,25.8c-9.2,10.8-15,23.9-15,38
	c0,8-0.8,14.3,7.9,17.3c7.3,2.6,31.2,5,40.8-0.7c6.3-3.7,13.7-7.5,18.7-12.9c4.4-4.7,6.7-12.1,8.7-18.1c1.1-3.2,8.4-13.7,10.8-15.3
	c2.7-1.8,7-0.3,10.3-1.4c3.2-1.1,5.6-2.7,8.5-4.5c5-3.3,9.2-8.8,12.9-13.6c2.4-3.2,3.3-5.5,3.8-9.3c0.3-1.9,0.2-3.5,0-5.2
	c-0.2-1.6-2-5.9-2-5.9s4.2-2,5-2.9c1.3-1.5,1.6-2.7,1.9-4.6c0.7-3.5,0.6-7,0.9-10.7c0.7-8.2,2.7-16.7,2.8-25.1
	c0.1-7.7,2.2-33.3,3.4-37.7c1.1-4.1,8.8-47.9,11-63.3c1.2-8.2,0.6-16.9,2-25.1c0.7-4,1.3-7.9,1.8-12.1c0.4-3.9,0.1-8.1,0.5-12.1
	c1.6-16.9,6.7-33.5,11.8-49.9c6-19.2,16.8-36.7,23.1-55.7c4.1-12.3,5-24.5,6.1-37.3c0.5-5.6-0.3-10.3,1.7-15.5
	c1.7-4.3,2.6-9.4,4.8-13.3c2.9,1.2,4,7.3,5.1,10.2c1.8,4.5,3.9,8.9,5.6,13.4c3.3,8.9,6.5,17.7,10.2,26.5
	c5.1,12.2,8.2,25.6,11.5,38.4c2.8,10.9,2.1,21.5,3.7,32.4c3.3,22.4,6.7,45.1,8.4,67.8c1,13.5,1.1,27.1,2.8,40.5
	c1.4,11.3,4.8,49.1,5.1,52.7c0.3,3.8,0.8,7.8,1.4,11.6c1.2,7.4,2,15.2,2.7,22.8c1.4,16.7,1.2,33.7,3.9,50.2
	c1.4,8.3,3.4,16.5,5.4,24.7c1.7,7.2,1.6,15.3,2.8,22.7c1.3,7.9,3.5,15.5,5.6,23.3c1.4,5.4,2.4,16.8,8.5,18.6c1.4,0.4,3.1,0.4,4.6,1
	c0.3,3.9-1.6,6.4-1.3,10.6c0.3,4.4,2.4,6.3,5.6,9.2c4.3,3.9,12.1,6.6,17.7,7.5c7.3,1.2,15.3,1.2,22.8,1.8c4.9,0.4,5.9,0,8.5,4.2
	c1.8,2.9,3.8,5.4,4.9,8.6c2.4,7.1,1.9,13,8.3,17.7c5.4,3.9,12.5,7.1,18.7,8.6c7.7,1.9,56.8,0.2,61.5-12.3c1.2-3.1,1.2-6.6,0.4-9.9
	c-0.9-3.5-3.2-5.4-4.7-8.4c-3.2-6.3-3.5-13-9.2-18.3c-2.5-2.4-15.6-8.7-18.8-10c-8-3.2-17.6-8.4-23.6-14.4c5.1-0.7,5.7-3.5,4.5-8
	c-1.1-3.9-2.7-7.7-3.7-11.5c-2.1-7.7-5.2-14.2-9.8-21c-2.2-3.2-3.8-6.7-6-9.8c-2.3-3.3-4.7-6-5-10.2c-0.3-3.8,3.5-40,4.2-47.9
	c0.8-9.6,1.4-19.4,1.4-29.2c0-8.2,0-16.4-1.4-24.3c-0.6-3.8-1.6-7.7-1.9-11.6c-0.2-2.8,0-20.9,0-25.1c0-17.2-7.4-33.1-8.8-50.2
	c-0.7-7.8,0-15.9,0-23.7c0-8-1.2-15.6-2.3-23.3c-1.3-8.6,0.7-43.5,1.4-52.1c1.5-18.2,1.8-36.7,3.2-54.9c1.4-17.5,1.8-35.8-0.8-53.1
	c-1.3-8.4-2.8-16.8-2.8-25.5c0-3.9-4.2-41-3.7-47c1.3-15.2,2.8-31.4-0.9-46.1c-1.7-6.5-2.3-13.6-4.8-20c-1.3-3.3-2.6-6.8-4.6-9.8
	c-1-1.4-2.1-2.9-3.3-4.2c-1.1-1.2-2.7-1.9-3.6-3.2c8.1,0,6-13.8,6-18.7c0-4.2-0.2-18.3-6.9-18.2c21.5-29.3,18.1-67,20.9-101.8
	c0.7-9.1,0.6-18.3,1.4-27.5c0.7-8.5,1.9-17,2.4-25.6c0.9-15.5,0.5-51.6,0.5-51.3c1.1-4.2,6-6,9.8-6.4c5.4-0.5,11,0.5,15.9,1.8
	c11.3,2.9,20.8-1.3,32-3.2c3.6-0.6,7.7-1,11.2-1.4c3.9-0.4,8.1,0,12.1-0.6c7.5-1.1,11.2-5.3,15.2-11.6c3.7-5.9,7.8-11.1,12.3-16.5
	c2.5-2.9,13.6-14.9,10.3-18.7c3.5,0.1,4.6-2.3,7.6-3.3c2.8-1,6.4-0.1,9.4-0.8c5.2-1.3,10.6-3.4,15.4-6.2c2.4-1.4,4.5-3,6.4-5
	c1.6-1.7,3-4.1,5.2-5.1c4.5-2,12.4-0.4,14.1-6.4c1.5-5.2-1-8.2-4.6-10.5c14.3-0.2,32.1-0.7,38.9-1.7c12.1-1.9,12.1-14.4,12.1-14.4
	h189.3v-12.6L829,134.9z M796.2,117.6c0,2.8,0,6.6-0.1,9.7c-1.5,0.1-2.7,0.3-3.4,0.5c-4.2,1.4-10,7.4-10,7.4l-23.5-0.5l-2.3-4.2
	c0,0-3-0.1-7.4-0.2v-12.8L796.2,117.6L796.2,117.6z M795.7,190.7c-8,0-16.2-0.5-23.8-2.4c-1.8-0.5-3.6-1.1-5.3-1.8
	c4.4-2.6,5.3-5,5.3-5l70.1-3.2C828.3,186.6,811.6,190.7,795.7,190.7z"/>
</svg>
