<?xml version="1.0" encoding="utf-8"?>
<!-- Svg Vector Icons : http://www.onlinewebfonts.com/icon -->
<!DOCTYPE svg PUBLIC "-//W3C//DTD SVG 1.1//EN" "http://www.w3.org/Graphics/SVG/1.1/DTD/svg11.dtd">
<svg version="1.1" xmlns="http://www.w3.org/2000/svg" xmlns:xlink="http://www.w3.org/1999/xlink" x="0px" y="0px" width="66px" height="58px" viewBox="0 0 1000 1000" enable-background="new 0 0 1000 1000" xml:space="preserve">
<metadata> Svg Vector Icons : http://www.onlinewebfonts.com/icon </metadata>
<g><g transform="translate(0.000000,511.000000) scale(0.100000,-0.100000)"><path d="M4886.8,3626.1c-71.5-27.8-95.3-87.4-234.3-546.1c-131.1-436.9-230.4-673.2-401.2-973.1c-119.2-208.5-347.5-554.1-498.5-758.6l-121.1-162.8l113.2-51.6c145-65.5,192.6-113.2,262.1-250.2c89.4-172.8,125.1-339.6,115.2-534.2c-13.9-299.9-148.9-500.5-423-627.5c-180.7-83.4-347.5-115.2-554.1-103.3c-143,7.9-190.7,19.9-315.8,81.4c-359.5,176.8-593.8,615.6-623.6,1165.7c-15.9,282,47.7,953.3,105.3,1100.2c15.9,39.7-59.6,73.5-498.5,222.4c-514.4,176.7-863.9,359.5-1447.7,756.6C108.6,3119.7,90.8,3129.6,102.7,3076c7.9-29.8,425-1342.5,925.4-2915.4l911.5-2859.8l-57.6-162.9c-113.2-319.7-99.3-440.9,65.5-520.3l85.4-41.7h2969c2869.7,0,2969,2,3050.4,37.7c166.8,77.4,182.7,200.6,65.5,522.3l-59.6,162.9l911.6,2859.7c502.4,1574.8,919.5,2887.5,927.4,2917.3c11.9,53.6-6,43.7-262.1-131.1c-583.9-397.2-933.4-579.9-1447.8-756.6c-174.8-59.6-359.5-125.1-409.1-147l-93.3-39.7l25.8-127.1c55.6-268.1,77.5-516.3,77.5-869.8c0-315.8-6-389.2-41.7-520.3C7641.3,111,7436.7-169,7170.6-300.1c-133.1-65.5-168.8-75.5-331.7-81.4c-558-23.8-937.4,260.1-961.2,718.9C5867.9,538,5895.7,681,5981,857.7c79.5,162.8,123.1,208.5,276.1,276l115.2,49.6l-87.4,115.2c-141,184.7-337.6,476.6-464.7,689.1c-248.2,411.1-353.5,661.3-512.4,1211.4c-89.4,307.8-133.1,403.1-200.6,427C5045.7,3649.9,4946.4,3649.9,4886.8,3626.1z"/></g></g>
</svg>